# xmcd
#
# Track frame offsets: 
#        150
#        18506
#        32006
#        45506
#        57238
#        66238
#        75238
#        88738
#        102238
#        115738
#        129388
#        142888
#        156388
#        169888
#        183388
#        196888
#        210388
#        223888
#        237388
#        250888
#        264388
#        274534
#        283534
#        292534
#        306034
#
# Disc length: 4211 seconds
#
# Revision: 0
# Processed by: cddbd v1.5.2PL0 Copyright (c) Steve Scherf et al.
# Submitted via: ExactAudioCopy v1.0b1
#
DISCID=5c107119
DTITLE=Robert G. Allen - Multiple Streams Of Internet Income CD5
DYEAR=2003
DGENRE=Business
TTITLE0=How Ordinary People Make Extraordinary Money Online
TTITLE1=How Ordinary People Make Extraordinary Money Online
TTITLE2=How Ordinary People Make Extraordinary Money Online
TTITLE3=How Ordinary People Make Extraordinary Money Online
TTITLE4=How Ordinary People Make Extraordinary Money Online
TTITLE5=How Ordinary People Make Extraordinary Money Online
TTITLE6=How Ordinary People Make Extraordinary Money Online
TTITLE7=How Ordinary People Make Extraordinary Money Online
TTITLE8=How Ordinary People Make Extraordinary Money Online
TTITLE9=How Ordinary People Make Extraordinary Money Online
TTITLE10=How Ordinary People Make Extraordinary Money Online
TTITLE11=How Ordinary People Make Extraordinary Money Online
TTITLE12=How Ordinary People Make Extraordinary Money Online
TTITLE13=How Ordinary People Make Extraordinary Money Online
TTITLE14=How Ordinary People Make Extraordinary Money Online
TTITLE15=How Ordinary People Make Extraordinary Money Online
TTITLE16=How Ordinary People Make Extraordinary Money Online
TTITLE17=How Ordinary People Make Extraordinary Money Online
TTITLE18=How Ordinary People Make Extraordinary Money Online
TTITLE19=How Ordinary People Make Extraordinary Money Online
TTITLE20=How Ordinary People Make Extraordinary Money Online
TTITLE21=How Ordinary People Make Extraordinary Money Online
TTITLE22=How Ordinary People Make Extraordinary Money Online
TTITLE23=How Ordinary People Make Extraordinary Money Online
TTITLE24=How Ordinary People Make Extraordinary Money Online
EXTD=
EXTT0=
EXTT1=
EXTT2=
EXTT3=
EXTT4=
EXTT5=
EXTT6=
EXTT7=
EXTT8=
EXTT9=
EXTT10=
EXTT11=
EXTT12=
EXTT13=
EXTT14=
EXTT15=
EXTT16=
EXTT17=
EXTT18=
EXTT19=
EXTT20=
EXTT21=
EXTT22=
EXTT23=
EXTT24=
PLAYORDER=
